<?xml version="1.0" encoding="utf-8"?>
<!-- Generator: Adobe Illustrator 16.0.4, SVG Export Plug-In . SVG Version: 6.00 Build 0)  -->
<!DOCTYPE svg PUBLIC "-//W3C//DTD SVG 1.1//EN" "http://www.w3.org/Graphics/SVG/1.1/DTD/svg11.dtd">
<svg version="1.1" id="Layer_1" xmlns="http://www.w3.org/2000/svg" xmlns:xlink="http://www.w3.org/1999/xlink" x="0px" y="0px"
	 width="620.167px" height="86px" viewBox="0 0 620.167 86" enable-background="new 0 0 620.167 86" xml:space="preserve">
<path fill="#AF4141" d="M94.57,63.971c-1.656,0-3.001-0.517-4.036-1.552L60.502,31.3L36.755,54.813h35.232
	c1.396,0,2.095,0.698,2.095,2.095v4.967c0,1.397-0.699,2.095-2.095,2.095H20.691c-0.983,0-1.475-0.439-1.475-1.319
	c0-0.155,0.039-0.349,0.116-0.582s0.245-0.452,0.504-0.66l48.658-48.89c0.982-0.982,2.068-1.475,3.259-1.475h5.122
	c1.293,0,2.431,0.493,3.415,1.475l47.959,48.735c0.258,0.26,0.427,0.518,0.504,0.776c0.078,0.259,0.117,0.492,0.117,0.698
	c0,0.828-0.596,1.242-1.785,1.242H94.57z"/>
<path fill="#AF4141" d="M152.143,63.971c-3.674,0-7.062-0.66-10.166-1.979s-5.795-3.155-8.071-5.51
	c-2.277-2.354-4.049-5.147-5.316-8.381c-1.268-3.232-1.901-6.764-1.901-10.593c0-3.776,0.607-7.281,1.823-10.515
	c1.215-3.233,2.936-6.04,5.161-8.42c2.224-2.379,4.901-4.229,8.032-5.549c3.129-1.319,6.608-1.979,10.438-1.979h52.848
	c1.397,0,2.095,0.673,2.095,2.018v4.966c0,1.397-0.698,2.095-2.095,2.095h-34.689c-1.707,0-3.143,0.182-4.307,0.543
	c-1.164,0.362-2.109,1.009-2.833,1.94c-0.725,0.931-1.242,2.173-1.552,3.725s-0.466,3.519-0.466,5.898v8.458
	c0,2.639,0.181,4.864,0.543,6.674c0.361,1.812,0.918,3.259,1.668,4.346c0.75,1.086,1.694,1.875,2.833,2.367
	c1.137,0.492,2.509,0.737,4.113,0.737h35c1.345,0,2.018,0.698,2.018,2.095v4.967c0,1.397-0.673,2.095-2.018,2.095H152.143z"/>
<path fill="#AF4141" d="M287.793,63.971c-1.397,0-2.096-0.698-2.096-2.095V42.242l-21.884,19.634
	c-0.776,0.725-1.579,1.255-2.405,1.591c-0.829,0.337-1.63,0.504-2.406,0.504h-4.501c-0.776,0-1.618-0.167-2.522-0.504
	c-0.906-0.336-1.798-0.866-2.677-1.591l-24.522-19.634v19.634c0,1.397-0.699,2.095-2.095,2.095h-7.217
	c-1.397,0-2.095-0.698-2.095-2.095V13.063c0-1.345,0.698-2.018,2.095-2.018h6.674c1.707,0,3.362,0.673,4.967,2.018l36.396,32.904
	l38.879-32.904c0.827-0.724,1.707-1.242,2.638-1.552c0.932-0.311,1.888-0.466,2.872-0.466h5.587c1.397,0,2.095,0.673,2.095,2.018
	v48.812c0,1.397-0.698,2.095-2.095,2.095H287.793z"/>
<path fill="#AF4141" d="M347.935,63.971c-3.674,0-7.062-0.66-10.166-1.979s-5.795-3.155-8.071-5.51
	c-2.277-2.354-4.049-5.147-5.316-8.381c-1.268-3.232-1.901-6.764-1.901-10.593c0-3.776,0.607-7.281,1.823-10.515
	c1.215-3.233,2.936-6.04,5.161-8.42c2.224-2.379,4.901-4.229,8.032-5.549c3.129-1.319,6.607-1.979,10.438-1.979h54.244
	c1.398,0,2.096,0.673,2.096,2.018v4.966c0,1.397-0.697,2.095-2.096,2.095h-36.084c-1.709,0-3.145,0.182-4.309,0.543
	c-1.164,0.362-2.107,1.009-2.832,1.94s-1.242,2.173-1.553,3.725c-0.309,1.552-0.465,3.519-0.465,5.898v8.458
	c0,2.639,0.182,4.864,0.543,6.674c0.361,1.812,0.918,3.259,1.668,4.346s1.695,1.875,2.834,2.367
	c1.137,0.492,2.508,0.737,4.113,0.737h36.318c1.396,0,2.094,0.698,2.094,2.095v4.967c0,1.397-0.697,2.095-2.094,2.095H347.935z
	 M364.542,39.681c-1.396,0-2.096-0.671-2.096-2.018v-5.044c0-1.345,0.699-2.018,2.096-2.018h37.094c1.346,0,2.018,0.466,2.018,1.397
	v6.286c0,0.932-0.672,1.397-2.018,1.397H364.542z"/>
<path fill="#AF4141" d="M481.335,20.125c-3.414,0-5.795,0.893-7.14,2.678c-1.346,1.785-2.018,4.695-2.018,8.73v30.343
	c0,1.397-0.698,2.095-2.095,2.095h-29.723c-1.346,0-2.018-0.698-2.018-2.095V32.929c0-3.207,0.466-6.143,1.396-8.808
	c0.932-2.664,2.328-4.966,4.191-6.907c1.862-1.94,4.216-3.453,7.062-4.54c2.845-1.086,6.208-1.63,10.089-1.63h56.34
	c1.345,0,2.018,0.673,2.018,2.018v4.966c0,1.397-0.673,2.095-2.018,2.095H481.335z M479.784,39.681
	c-1.397,0-2.096-0.671-2.096-2.018v-5.044c0-1.345,0.698-2.018,2.096-2.018h37.172c1.396,0,2.096,0.466,2.096,1.397v6.286
	c0,0.932-0.699,1.397-2.096,1.397H479.784z"/>
<path fill="#AF4141" d="M585.711,63.971c-1.707,0-3.208-0.569-4.501-1.708l-20.875-18.625l-25.843,18.78
	c-0.725,0.518-1.474,0.906-2.25,1.164c-0.776,0.26-1.682,0.388-2.716,0.388h-5.665c-1.087,0-1.63-0.414-1.63-1.242
	c0-0.517,0.283-1.009,0.854-1.475l31.43-22.971l-27.239-24.29c-0.518-0.466-0.776-0.982-0.776-1.552c0-0.414,0.168-0.75,0.505-1.009
	c0.336-0.258,0.84-0.388,1.514-0.388h32.36c0.931,0,1.758,0.143,2.483,0.427c0.724,0.285,1.396,0.712,2.018,1.281l14.435,12.96
	l18.159-13.115c0.724-0.517,1.474-0.905,2.25-1.164c0.776-0.258,1.681-0.388,2.716-0.388h5.665c1.087,0,1.63,0.415,1.63,1.242
	c0,0.518-0.285,0.983-0.854,1.397l-23.669,17.306l33.603,30.033c0.568,0.465,0.854,0.958,0.854,1.474
	c0,0.983-0.673,1.475-2.018,1.475H585.711z"/>
</svg>
