<?xml version="1.0" encoding="utf-8"?>
<!-- Generator: Adobe Illustrator 16.0.4, SVG Export Plug-In . SVG Version: 6.00 Build 0)  -->
<!DOCTYPE svg PUBLIC "-//W3C//DTD SVG 1.1//EN" "http://www.w3.org/Graphics/SVG/1.1/DTD/svg11.dtd">
<svg version="1.1" id="Layer_1" xmlns="http://www.w3.org/2000/svg" xmlns:xlink="http://www.w3.org/1999/xlink" x="0px" y="0px"
	 width="300.557px" height="26.47px" viewBox="0 0 300.557 26.47" enable-background="new 0 0 300.557 26.47" xml:space="preserve">
<path fill="#AF4141" d="M37.687,26.47c-0.829,0-1.5-0.258-2.019-0.776L20.648,10.13L8.771,21.89h17.621
	c0.698,0,1.048,0.35,1.048,1.048v2.484c0,0.698-0.35,1.047-1.048,1.047H0.737C0.245,26.47,0,26.25,0,25.81
	c0-0.077,0.019-0.174,0.059-0.291c0.039-0.116,0.122-0.226,0.251-0.33L24.646,0.737C25.137,0.246,25.68,0,26.276,0h2.561
	c0.647,0,1.216,0.246,1.708,0.737l23.986,24.375c0.129,0.13,0.213,0.259,0.252,0.389c0.039,0.129,0.058,0.246,0.058,0.349
	c0,0.415-0.298,0.621-0.892,0.621H37.687z"/>
<path fill="#AF4141" d="M66.481,26.47c-1.837,0-3.533-0.33-5.084-0.989c-1.553-0.66-2.898-1.578-4.037-2.755
	c-1.139-1.178-2.024-2.575-2.659-4.192c-0.634-1.617-0.951-3.383-0.951-5.297c0-1.889,0.305-3.642,0.912-5.259
	c0.608-1.617,1.469-3.021,2.582-4.211c1.112-1.19,2.451-2.115,4.017-2.775C62.827,0.33,64.566,0,66.481,0h26.431
	c0.699,0,1.048,0.337,1.048,1.009v2.484c0,0.699-0.349,1.048-1.048,1.048H75.563c-0.854,0-1.572,0.091-2.154,0.272
	c-0.583,0.181-1.055,0.504-1.417,0.97c-0.362,0.465-0.621,1.086-0.776,1.863c-0.155,0.775-0.233,1.76-0.233,2.95v4.23
	c0,1.32,0.091,2.433,0.272,3.338c0.181,0.906,0.459,1.63,0.834,2.173c0.375,0.544,0.847,0.938,1.417,1.184
	c0.568,0.246,1.254,0.369,2.057,0.369h17.504c0.673,0,1.009,0.35,1.009,1.048v2.484c0,0.698-0.336,1.047-1.009,1.047H66.481z"/>
<path fill="#AF4141" d="M134.325,26.47c-0.699,0-1.048-0.349-1.048-1.047v-9.82l-10.945,9.82c-0.388,0.362-0.789,0.628-1.203,0.795
	c-0.415,0.168-0.815,0.252-1.203,0.252h-2.251c-0.389,0-0.81-0.083-1.262-0.252c-0.453-0.167-0.899-0.433-1.339-0.795l-12.264-9.82
	v9.82c0,0.698-0.35,1.047-1.048,1.047h-3.61c-0.699,0-1.048-0.349-1.048-1.047V1.009C97.104,0.337,97.453,0,98.151,0h3.338
	c0.854,0,1.682,0.337,2.484,1.009l18.204,16.457l19.445-16.457c0.414-0.362,0.854-0.621,1.319-0.777
	C143.407,0.078,143.885,0,144.377,0h2.794c0.699,0,1.048,0.337,1.048,1.009v24.413c0,0.698-0.349,1.047-1.048,1.047H134.325z"/>
<path fill="#AF4141" d="M164.404,26.47c-1.837,0-3.532-0.33-5.085-0.989c-1.552-0.66-2.897-1.578-4.036-2.755
	c-1.139-1.178-2.025-2.575-2.659-4.192c-0.635-1.617-0.95-3.383-0.95-5.297c0-1.889,0.303-3.642,0.911-5.259
	c0.608-1.617,1.469-3.021,2.581-4.211c1.112-1.19,2.451-2.115,4.017-2.775c1.565-0.66,3.305-0.99,5.22-0.99h27.13
	c0.699,0,1.048,0.337,1.048,1.009v2.484c0,0.699-0.349,1.048-1.048,1.048h-18.048c-0.854,0-1.572,0.091-2.154,0.272
	c-0.583,0.181-1.054,0.504-1.417,0.97c-0.362,0.465-0.621,1.086-0.776,1.863c-0.155,0.775-0.233,1.76-0.233,2.95v4.23
	c0,1.32,0.091,2.433,0.272,3.338c0.18,0.906,0.458,1.63,0.834,2.173c0.375,0.544,0.848,0.938,1.417,1.184
	c0.568,0.246,1.254,0.369,2.057,0.369h18.165c0.698,0,1.047,0.35,1.047,1.048v2.484c0,0.698-0.349,1.047-1.047,1.047H164.404z
	 M172.71,14.322c-0.698,0-1.048-0.336-1.048-1.009V10.79c0-0.673,0.35-1.009,1.048-1.009h18.552c0.673,0,1.009,0.232,1.009,0.699
	v3.143c0,0.466-0.336,0.699-1.009,0.699H172.71z"/>
<path fill="#AF4141" d="M231.123,4.541c-1.708,0-2.899,0.446-3.571,1.339c-0.673,0.892-1.009,2.348-1.009,4.366v15.176
	c0,0.698-0.35,1.047-1.048,1.047h-14.865c-0.673,0-1.009-0.349-1.009-1.047V10.945c0-1.604,0.233-3.072,0.699-4.405
	c0.466-1.332,1.164-2.484,2.097-3.454c0.931-0.97,2.108-1.728,3.531-2.271C217.369,0.272,219.052,0,220.993,0h28.177
	c0.673,0,1.009,0.337,1.009,1.009v2.484c0,0.699-0.336,1.048-1.009,1.048H231.123z M230.346,14.322
	c-0.699,0-1.048-0.336-1.048-1.009V10.79c0-0.673,0.349-1.009,1.048-1.009h18.591c0.698,0,1.048,0.232,1.048,0.699v3.143
	c0,0.466-0.35,0.699-1.048,0.699H230.346z"/>
<path fill="#AF4141" d="M283.325,26.47c-0.854,0-1.604-0.284-2.251-0.854l-10.44-9.315l-12.925,9.393
	c-0.362,0.259-0.737,0.453-1.125,0.582c-0.389,0.13-0.841,0.194-1.358,0.194h-2.833c-0.543,0-0.815-0.206-0.815-0.621
	c0-0.259,0.142-0.504,0.427-0.738l15.719-11.488L254.099,1.475c-0.259-0.233-0.388-0.491-0.388-0.776
	c0-0.207,0.084-0.375,0.253-0.504C254.131,0.065,254.383,0,254.72,0h16.186c0.465,0,0.878,0.071,1.241,0.213
	c0.362,0.143,0.699,0.356,1.01,0.64l7.218,6.482l9.082-6.56c0.362-0.258,0.738-0.453,1.125-0.582C290.971,0.065,291.423,0,291.941,0
	h2.833c0.543,0,0.815,0.208,0.815,0.621c0,0.259-0.142,0.492-0.427,0.699l-11.837,8.656l16.806,15.021
	c0.284,0.232,0.427,0.479,0.427,0.737c0,0.492-0.336,0.737-1.009,0.737H283.325z"/>
</svg>
