<svg fill="#fff" xmlns="http://www.w3.org/2000/svg" viewBox="0 0 50 50" x="0px" y="0px"><title>list-2</title><path d="M501,249v10a2,2,0,0,1-2,2H489a2,2,0,0,1-2-2V249a2,2,0,0,1,2-2h10A2,2,0,0,1,501,249Zm16-2H507a2,2,0,0,0-2,2v10a2,2,0,0,0,2,2h10a2,2,0,0,0,2-2V249A2,2,0,0,0,517,247Zm18,0H525a2,2,0,0,0-2,2v10a2,2,0,0,0,2,2h10a2,2,0,0,0,2-2V249A2,2,0,0,0,535,247Zm-36,18H489a2,2,0,0,0-2,2v10a2,2,0,0,0,2,2h10a2,2,0,0,0,2-2V267A2,2,0,0,0,499,265Zm18,0H507a2,2,0,0,0-2,2v10a2,2,0,0,0,2,2h10a2,2,0,0,0,2-2V267A2,2,0,0,0,517,265Zm18,0H525a2,2,0,0,0-2,2v10a2,2,0,0,0,2,2h10a2,2,0,0,0,2-2V267A2,2,0,0,0,535,265Zm-36,18H489a2,2,0,0,0-2,2v10a2,2,0,0,0,2,2h10a2,2,0,0,0,2-2V285A2,2,0,0,0,499,283Zm18,0H507a2,2,0,0,0-2,2v10a2,2,0,0,0,2,2h10a2,2,0,0,0,2-2V285A2,2,0,0,0,517,283Zm18,0H525a2,2,0,0,0-2,2v10a2,2,0,0,0,2,2h10a2,2,0,0,0,2-2V285A2,2,0,0,0,535,283Z" transform="translate(-487 -247)"></path></svg>