<?xml version="1.0" encoding="utf-8"?><!DOCTYPE svg PUBLIC "-//W3C//DTD SVG 1.1//EN" "http://www.w3.org/Graphics/SVG/1.1/DTD/svg11.dtd"><svg fill="#fff" version="1.1" xmlns="http://www.w3.org/2000/svg" xmlns:xlink="http://www.w3.org/1999/xlink" x="0px" y="0px" viewBox="0 0 100 100" enable-background="new 0 0 100 100" xml:space="preserve"><path d="M4,0h92c2.209,0,4,1.791,4,4v12c0,2.209-1.791,4-4,4H4c-2.209,0-4-1.791-4-4V4C0,1.791,1.791,0,4,0z"></path><path d="M4,26.667h92c2.209,0,4,1.791,4,4v12c0,2.209-1.791,4-4,4H4c-2.209,0-4-1.791-4-4v-12
	C0,28.458,1.791,26.667,4,26.667z"></path><path d="M4,53.334h92c2.209,0,4,1.79,4,4v12c0,2.209-1.791,4-4,4H4c-2.209,0-4-1.791-4-4v-12
	C0,55.124,1.791,53.334,4,53.334z"></path><path d="M4,80h92c2.209,0,4,1.791,4,4v12c0,2.209-1.791,4-4,4H4c-2.209,0-4-1.791-4-4V84C0,81.791,1.791,80,4,80z"></path></svg>