<?xml version="1.0" encoding="utf-8"?>
<!-- Generator: Adobe Illustrator 16.0.4, SVG Export Plug-In . SVG Version: 6.00 Build 0)  -->
<!DOCTYPE svg PUBLIC "-//W3C//DTD SVG 1.1//EN" "http://www.w3.org/Graphics/SVG/1.1/DTD/svg11.dtd">
<svg version="1.1" id="Layer_1" xmlns="http://www.w3.org/2000/svg" xmlns:xlink="http://www.w3.org/1999/xlink" x="0px" y="0px"
	 width="700px" height="550px" viewBox="150 200 700 550" enable-background="new 150 200 700 550" xml:space="preserve">
<path fill="#FFFFFF" d="M378,515.5c22.5,0,41-18,41-40.5s-18.5-40.5-41-40.5s-40.5,18-40.5,40.5S355.5,515.5,378,515.5z M500,515.5
	c22.5,0,40.5-18,40.5-40.5s-18-40.5-40.5-40.5s-40.5,18-40.5,40.5S477.5,515.5,500,515.5z M622,515.5c22.5,0,40.5-18,40.5-40.5
	s-18-40.5-40.5-40.5s-40.5,18-40.5,40.5S599.5,515.5,622,515.5z M190,750c-27,0-40-13-40-40V240c0-27,13-40,40-40h620
	c27,0,40,13,40,40v470c0,27-13,40-40,40H190z M200,700h50v-50h-50V700z M200,600h50v-50h-50V600z M200,500h50v-50h-50V500z M200,400
	h50v-50h-50V400z M200,300h50v-50h-50V300z M750,700h50v-50h-50V700z M750,600h50v-50h-50V600z M750,500h50v-50h-50V500z M750,400
	h50v-50h-50V400z M750,300h50v-50h-50V300z"/>
</svg>
