<?xml version="1.0" encoding="utf-8"?>
<!-- Generator: Adobe Illustrator 16.0.4, SVG Export Plug-In . SVG Version: 6.00 Build 0)  -->
<!DOCTYPE svg PUBLIC "-//W3C//DTD SVG 1.1//EN" "http://www.w3.org/Graphics/SVG/1.1/DTD/svg11.dtd">
<svg version="1.1" id="Layer_1" xmlns="http://www.w3.org/2000/svg" xmlns:xlink="http://www.w3.org/1999/xlink" x="0px" y="0px"
	 width="1000px" height="548px" viewBox="0 110.5 1000 548" enable-background="new 0 110.5 1000 548" xml:space="preserve">
<path fill="#FFFFFF" d="M160,650c-82.71,0-150-67.29-150-150s67.29-150,150-150s150,67.29,150,150S242.71,650,160,650z M160,450
	c-27.57,0-50,22.43-50,50s22.43,50,50,50s50-22.43,50-50S187.57,450,160,450z"/>
<path fill="#FFFFFF" d="M505,650c-82.71,0-150-67.29-150-150s67.29-150,150-150s150,67.29,150,150S587.71,650,505,650z M505,450
	c-27.57,0-50,22.43-50,50s22.43,50,50,50s50-22.43,50-50S532.57,450,505,450z"/>
<path fill="#FFFFFF" d="M840,650c-82.71,0-150-67.29-150-150s67.29-150,150-150s150,67.29,150,150S922.71,650,840,650z M840,450
	c-27.57,0-50,22.43-50,50s22.43,50,50,50s50-22.43,50-50S867.57,450,840,450z"/>
</svg>
