<?xml version="1.0" encoding="utf-8"?>
<!-- Generator: Adobe Illustrator 16.0.4, SVG Export Plug-In . SVG Version: 6.00 Build 0)  -->
<!DOCTYPE svg PUBLIC "-//W3C//DTD SVG 1.1//EN" "http://www.w3.org/Graphics/SVG/1.1/DTD/svg11.dtd">
<svg version="1.1" id="Layer_1" xmlns="http://www.w3.org/2000/svg" xmlns:xlink="http://www.w3.org/1999/xlink" x="0px" y="0px"
	 width="600px" height="600px" viewBox="200 200 600 600" enable-background="new 200 200 600 600" xml:space="preserve">
<path fill="#FFFFFF" d="M225,700h450c25,0,25,0,25-25V225c0-25,0-25-25-25H225c-25,0-25,0-25,25v450C200,700,200,700,225,700z
	 M319,493.5c-24.5,0-44-19.5-44-43.5s19.5-44,44-44c24,0,43.5,20,43.5,44S343,493.5,319,493.5z M325,800h450c25,0,25,0,25-25V325
	c0-25,0-25-25-25h-25v450H300v25C300,800,300,800,325,800z M450,493.5c-24,0-43.5-19.5-43.5-43.5s19.5-44,43.5-44s44,20,44,44
	S474,493.5,450,493.5z M581.5,493.5c-24.5,0-44-19.5-44-43.5s19.5-44,44-44c24,0,43.5,20,43.5,44S605.5,493.5,581.5,493.5z"/>
</svg>
